<?xml version="1.0" standalone="no"?>
<!DOCTYPE svg PUBLIC "-//W3C//DTD SVG 20010904//EN"
 "http://www.w3.org/TR/2001/REC-SVG-20010904/DTD/svg10.dtd">
<svg version="1.0" xmlns="http://www.w3.org/2000/svg"
 width="606.000000pt" height="606.000000pt" viewBox="0 0 606.000000 606.000000"
 preserveAspectRatio="xMidYMid meet">

<g transform="translate(0.000000,606.000000) scale(0.100000,-0.100000)"
fill="#000000" stroke="none">
<path d="M2641 5570 c-118 -18 -374 -187 -564 -372 -45 -44 -101 -94 -124
-110 -36 -26 -47 -44 -77 -122 -19 -50 -37 -120 -41 -156 -3 -36 -13 -85 -20
-110 -8 -25 -24 -97 -35 -160 -27 -144 -25 -409 3 -472 18 -41 34 -176 24
-202 -6 -15 -9 -15 -34 1 -20 13 -53 19 -131 21 -94 4 -107 2 -133 -17 -38
-28 -54 -27 -80 8 -38 52 -67 56 -132 22 -104 -55 -94 -12 -92 -384 2 -320 3
-328 24 -351 27 -28 27 -44 -1 -73 -20 -21 -20 -24 -5 -41 19 -21 89 -42 137
-42 19 0 130 1 247 1 162 0 214 3 222 13 7 8 12 68 14 142 l2 130 51 -66 c28
-36 65 -90 80 -120 21 -39 41 -61 69 -77 30 -16 48 -37 69 -80 16 -32 42 -84
58 -116 32 -63 33 -85 1 -177 -27 -79 -53 -194 -53 -235 0 -22 -9 -83 -20
-135 -11 -52 -20 -108 -20 -123 0 -20 -15 -44 -50 -81 -33 -35 -48 -59 -44
-69 4 -12 -9 -20 -63 -36 -38 -12 -85 -24 -104 -28 -19 -3 -44 -13 -56 -21
-13 -8 -30 -12 -38 -8 -9 3 -14 2 -11 -3 6 -10 -147 -88 -239 -122 -33 -12
-64 -25 -69 -30 -6 -5 -20 -9 -33 -9 -13 0 -23 -4 -23 -10 0 -5 -15 -10 -32
-10 -31 1 -32 2 -14 15 41 31 -16 47 -77 22 -34 -15 -53 -33 -59 -57 -2 -7
-16 -25 -31 -39 -24 -20 -42 -25 -109 -29 -74 -4 -82 -7 -111 -37 -52 -53
-127 -56 -127 -5 0 10 -15 27 -32 39 -18 11 -44 28 -57 38 -19 14 -46 18 -115
19 -50 1 -122 4 -161 8 -38 4 -80 4 -93 -1 l-22 -9 39 -79 c84 -174 286 -459
449 -638 370 -405 875 -717 1407 -872 115 -33 350 -80 485 -97 137 -17 544
-17 680 0 559 70 1080 285 1530 633 128 99 363 330 467 459 79 98 223 301 223
314 0 3 -15 6 -34 6 -21 0 -36 6 -40 15 -9 25 -46 19 -46 -7 l-1 -23 -18 23
c-11 12 -25 22 -31 22 -7 0 -10 8 -7 20 3 11 1 22 -4 25 -4 3 -11 -6 -15 -20
-4 -16 -13 -25 -25 -25 -10 0 -19 4 -19 8 0 22 -85 42 -92 22 -5 -15 -69 28
-75 51 -6 21 -9 22 -68 23 -34 1 -40 4 -40 23 0 28 -13 40 -21 19 -6 -15 -8
-15 -21 4 -17 24 -33 26 -33 4 0 -13 -4 -13 -31 3 -17 10 -35 29 -40 42 -8 19
-12 21 -24 11 -12 -10 -19 -10 -33 2 -9 7 -35 23 -56 33 -74 37 -77 40 -72 57
5 20 -20 25 -26 6 -3 -9 -9 -8 -22 5 -10 9 -28 17 -40 17 -13 0 -29 7 -36 15
-7 8 -18 15 -24 15 -7 0 -23 10 -36 23 -47 43 -140 57 -162 25 -8 -10 -11 -10
-15 0 -9 24 -34 42 -58 42 -12 0 -49 20 -81 45 -31 25 -60 45 -64 45 -18 0
-17 -16 0 -51 33 -64 24 -73 -25 -22 -25 25 -45 48 -45 50 0 2 -14 22 -32 44
-17 21 -29 41 -27 43 5 4 168 -48 196 -63 10 -5 53 -24 96 -43 65 -28 74 -34
57 -42 -26 -12 -26 -29 0 -22 11 3 28 8 38 11 16 5 118 -31 177 -62 11 -6 47
-21 80 -33 33 -12 85 -33 116 -46 31 -13 91 -37 135 -53 43 -16 153 -59 244
-95 178 -70 212 -79 162 -42 -26 19 -30 25 -19 35 17 14 28 232 32 606 1 144
5 271 9 283 12 36 -10 59 -71 77 -32 9 -64 22 -72 28 -17 14 -183 21 -234 10
-51 -11 -220 1 -283 21 -34 11 -55 24 -64 41 -17 32 -41 28 -59 -10 -7 -17
-22 -39 -31 -50 -16 -17 -17 -28 -8 -85 5 -36 7 -108 3 -160 -3 -52 -8 -155
-12 -229 -4 -95 -9 -139 -19 -149 -8 -7 -14 -19 -14 -25 0 -7 -6 -6 -15 3 -22
23 -35 146 -37 349 0 149 3 195 16 230 9 24 14 46 11 50 -2 4 -5 25 -6 47 -1
21 -6 47 -11 56 -13 26 -68 32 -114 13 -45 -19 -94 -26 -109 -14 -22 17 -103
37 -175 44 -134 12 -153 15 -157 19 -2 2 3 39 12 81 8 43 13 85 10 95 -9 29
15 106 40 130 29 27 78 24 83 -5 9 -48 30 -57 132 -54 52 2 130 -1 172 -5 98
-11 128 4 128 62 0 21 -7 48 -17 61 -14 20 -14 29 -4 58 10 26 11 74 6 181 -4
81 -9 150 -11 153 -2 3 -4 105 -5 225 0 184 -3 222 -16 237 -9 9 -24 17 -33
17 -25 0 -70 -24 -70 -37 0 -22 -27 -14 -45 14 -25 38 -21 154 6 138 5 -4 9
-1 9 4 0 6 14 11 30 11 17 0 30 5 30 10 0 6 -12 10 -26 10 -43 0 -54 25 -47
111 3 42 0 120 -6 174 -7 53 -10 100 -6 103 3 4 27 7 53 7 40 1 49 5 62 28 21
38 3 51 -78 55 l-68 4 -28 52 c-123 223 -318 461 -451 550 -21 15 -67 53 -101
84 -79 72 -116 95 -206 125 -40 14 -93 34 -118 45 -137 61 -543 109 -709 82z
m709 -1021 c25 -1 79 -1 120 -2 41 0 102 0 136 1 81 3 91 -9 111 -134 8 -55
19 -108 24 -119 5 -11 13 -40 18 -65 6 -24 15 -46 20 -48 6 -2 11 -11 11 -20
0 -9 11 -35 25 -57 62 -103 83 -160 104 -293 25 -157 27 -254 6 -360 -8 -42
-19 -99 -25 -127 -5 -27 -12 -71 -15 -97 -5 -35 -13 -53 -34 -70 -15 -13 -30
-31 -34 -41 -7 -20 -23 -22 -33 -5 -4 6 1 17 10 24 28 20 11 35 -24 22 -17 -5
-37 -7 -45 -4 -9 3 -21 -4 -31 -19 -29 -44 -54 -28 -67 43 -6 30 -5 33 14 27
33 -11 20 27 -15 44 -16 7 -31 22 -33 32 -6 20 -94 66 -173 89 -25 8 -54 23
-64 33 -19 20 -20 20 -27 1 -3 -10 -3 -24 2 -29 4 -6 11 -29 15 -52 5 -35 3
-43 -15 -52 -23 -13 -76 -3 -128 24 -15 8 -36 15 -45 15 -28 0 -21 19 21 59
32 30 38 40 30 58 -4 12 -20 25 -34 29 -47 12 -129 -3 -169 -30 -28 -18 -47
-24 -74 -21 -20 2 -40 4 -43 4 -4 1 -18 12 -31 26 -14 14 -36 25 -49 24 -13
-1 -52 -2 -86 -2 -59 -1 -63 -2 -63 -24 0 -20 -3 -22 -19 -13 -27 14 -43 5
-77 -40 -16 -22 -37 -40 -46 -40 -9 0 -33 -10 -53 -21 -28 -17 -55 -22 -129
-24 -51 -1 -98 -5 -104 -9 -7 -4 -12 -1 -12 10 0 13 -3 14 -15 4 -8 -7 -15
-18 -15 -25 0 -6 -9 -20 -20 -30 -19 -17 -20 -16 -34 16 -13 31 -21 72 -48
249 -17 113 -6 334 19 383 14 28 29 38 19 12 -4 -12 4 -15 38 -15 27 0 48 -6
56 -15 7 -8 20 -15 30 -15 10 0 23 -7 31 -16 21 -25 68 -45 128 -55 31 -5 79
-14 106 -21 28 -7 84 -12 127 -10 l76 2 7 -39 c4 -27 2 -49 -9 -70 -22 -42
-21 -83 2 -79 11 2 21 21 30 58 8 30 20 62 27 70 7 8 15 37 18 63 3 29 13 57
25 70 32 34 44 108 45 295 2 145 0 173 -13 177 -8 3 -26 15 -40 27 -43 40 -80
59 -99 53 -22 -7 -71 14 -71 30 0 20 53 50 120 69 36 10 74 23 84 28 11 6 67
14 125 19 58 5 122 13 141 18 19 6 71 8 115 5 44 -3 100 -5 125 -5z m-934
-504 c-11 -8 -25 -15 -30 -15 -6 0 -2 7 8 15 11 8 25 15 30 15 6 0 2 -7 -8
-15z m1817 -56 c38 -17 55 -67 61 -175 l5 -99 -13 87 c-16 100 -34 136 -76
145 -32 6 -38 21 -18 41 15 15 12 14 41 1z m-2348 -99 c-3 -5 -11 -10 -16 -10
-6 0 -7 5 -4 10 3 6 11 10 16 10 6 0 7 -4 4 -10z m2314 -116 c18 -38 35 -85
38 -104 11 -86 15 -89 33 -30 18 54 18 54 19 19 2 -68 -35 -163 -82 -209 -23
-24 -52 -49 -64 -58 -23 -14 -32 -65 -14 -76 10 -6 -4 -89 -21 -123 -17 -35
-63 -53 -104 -40 -51 16 -58 72 -15 122 10 11 24 39 31 63 15 47 23 56 60 67
35 10 99 73 116 115 20 46 20 114 1 143 -10 16 -36 29 -81 41 -36 10 -66 22
-66 27 0 5 12 15 27 22 21 9 27 9 31 -1 8 -24 20 -11 28 31 5 23 8 48 7 55 -3
31 25 0 56 -64z m130 -215 c-7 -4 -9 -14 -6 -23 3 -8 2 -18 -3 -21 -6 -4 -10
0 -11 7 0 7 -4 4 -9 -7 -12 -25 -1 49 11 83 5 13 12 76 16 140 l8 117 3 -144
c2 -103 -1 -147 -9 -152z m-2520 169 c1 -31 -4 -69 -11 -85 -11 -27 -12 -27
-15 -5 -3 12 -11 22 -18 22 -14 0 -31 37 -21 47 3 4 1 12 -4 18 -14 17 -3 42
21 48 11 3 23 16 26 28 6 22 7 22 14 3 4 -10 8 -45 8 -76z m151 -65 c0 -30 -4
-41 -12 -38 -7 3 -24 -11 -36 -30 -23 -33 -24 -37 -11 -106 14 -77 52 -143 93
-159 28 -10 36 -28 36 -86 0 -25 6 -55 14 -67 27 -42 29 -81 6 -102 -21 -19
-22 -19 -40 5 -11 14 -27 45 -36 70 -9 25 -25 57 -36 72 -21 30 -51 109 -43
116 2 2 0 12 -5 21 -4 9 -13 51 -19 92 -6 42 -13 83 -16 91 -4 10 1 17 16 21
14 4 20 11 16 21 -6 16 25 109 44 132 17 21 29 0 29 -53z m2096 -160 c6 -29 4
-31 -16 -26 -28 7 -35 26 -20 53 14 27 27 17 36 -27z m274 -30 c-1 -5 -7 -19
-15 -33 -18 -32 -18 -40 0 -40 8 0 15 -4 15 -9 0 -17 -29 -33 -50 -26 -19 6
-20 12 -14 53 4 26 12 50 18 54 14 10 46 10 46 1z m-1603 -132 c31 -22 29 -27
-17 -39 -37 -9 -40 -8 -35 8 3 10 1 21 -5 25 -5 3 -10 13 -10 21 0 18 32 11
67 -15z m270 -160 c17 -5 35 -5 40 0 4 4 14 5 20 1 8 -5 -5 -13 -32 -21 -37
-11 -51 -11 -76 -1 -22 10 -27 15 -17 21 17 11 26 11 65 0z m1300 -13 c18 -7
33 -15 33 -19 0 -4 -16 -17 -35 -29 -20 -12 -42 -29 -50 -37 -10 -9 -15 -10
-15 -3 0 7 -6 10 -13 7 -8 -3 -20 -1 -27 3 -10 6 -4 18 25 49 45 47 38 45 82
29z m-717 -58 c20 -20 26 -65 12 -85 -4 -6 -16 -12 -27 -12 -18 -1 -20 4 -17
58 2 32 6 59 8 59 2 0 13 -9 24 -20z m-198 -88 c7 -7 21 -12 33 -12 23 0 55
-66 55 -113 0 -15 7 -30 15 -33 8 -4 15 -12 15 -20 0 -7 11 -21 25 -30 35 -23
33 -66 -5 -107 -16 -18 -52 -57 -80 -88 -36 -41 -61 -59 -84 -63 -19 -4 -45
-15 -59 -26 -29 -23 -75 -26 -102 -7 -15 12 -23 12 -47 -1 -27 -13 -34 -12
-69 4 -42 18 -71 20 -154 9 -40 -5 -57 -2 -85 14 -19 11 -47 25 -62 31 -16 7
-28 16 -28 22 0 5 -4 6 -10 3 -6 -3 -7 1 -4 9 3 9 1 16 -5 16 -6 0 -11 5 -11
10 0 6 8 10 19 10 10 0 35 7 55 15 25 11 65 15 119 14 45 0 115 1 155 4 67 5
76 9 122 48 31 26 49 48 45 57 -3 7 -5 25 -5 38 0 17 -8 28 -27 35 -16 6 -48
20 -73 30 -25 10 -70 21 -100 24 -74 9 -132 24 -150 40 -8 7 -25 15 -38 17
-35 5 -28 22 13 32 25 7 46 6 70 -2 36 -14 102 -6 200 21 61 17 239 17 257 -1z
m422 -349 c-4 -43 -9 -127 -10 -188 -1 -60 -3 -123 -3 -140 -4 -146 -112 -420
-166 -420 -11 0 -29 -8 -39 -17 -24 -22 -26 -22 -61 -4 -17 9 -22 16 -15 21 9
5 9 10 0 19 -9 8 -14 8 -17 -1 -6 -18 -23 -16 -23 2 0 18 -13 19 -60 5 -35
-10 -90 2 -90 21 0 4 -10 9 -22 11 -29 4 -35 35 -11 54 15 11 16 15 4 23 -12
8 -12 13 3 35 9 14 22 26 29 27 43 2 69 10 83 23 20 20 24 20 39 -1 13 -17 14
-17 32 0 27 23 33 22 34 -10 0 -27 1 -27 14 7 7 20 9 39 4 44 -15 16 -10 39 6
32 11 -4 15 2 15 24 0 25 4 30 23 30 33 0 47 18 47 61 0 21 5 41 10 44 6 3 10
15 10 26 0 10 -4 19 -10 19 -14 0 -12 23 5 56 11 22 11 31 2 42 -9 11 -8 17 4
26 14 10 53 60 128 161 18 25 36 45 38 45 3 0 2 -35 -3 -77z m85 -79 c11 -14
21 -30 23 -36 4 -10 83 -28 144 -32 18 -1 39 -8 49 -16 14 -12 18 -12 25 0 7
12 12 11 29 -4 22 -20 29 -80 11 -91 -5 -3 -10 -22 -10 -41 0 -24 -5 -34 -15
-34 -8 0 -15 -4 -15 -10 0 -5 -11 -25 -24 -45 -15 -21 -22 -43 -19 -55 7 -25
-32 -71 -52 -64 -7 3 -35 33 -61 67 -27 34 -64 79 -84 100 -62 68 -70 87 -70
158 0 93 9 129 31 129 9 0 27 -11 38 -26z m401 -276 c0 -16 -3 -19 -11 -11 -6
6 -8 16 -5 22 11 17 16 13 16 -11z m-340 -130 c0 -14 -18 -9 -24 8 -11 28 -6
39 9 20 8 -11 15 -23 15 -28z m260 2 c0 -5 -5 -10 -11 -10 -5 0 -7 5 -4 10 3
6 8 10 11 10 2 0 4 -4 4 -10z m-202 -75 c-3 -3 -9 2 -12 12 -6 14 -5 15 5 6 7
-7 10 -15 7 -18z m-1930 -37 c-16 -28 -37 -45 -63 -52 -13 -3 -5 9 24 35 50
45 56 48 39 17z m1432 -202 c0 -3 -4 -8 -10 -11 -5 -3 -10 -1 -10 4 0 6 5 11
10 11 6 0 10 -2 10 -4z m-2530 -256 c0 -5 -4 -10 -9 -10 -6 0 -13 5 -16 10 -3
6 1 10 9 10 9 0 16 -4 16 -10z m1768 -469 c3 -8 -1 -12 -9 -9 -7 2 -15 10 -17
17 -3 8 1 12 9 9 7 -2 15 -10 17 -17z m319 -963 c-3 -8 -6 -5 -6 6 -1 11 2 17
5 13 3 -3 4 -12 1 -19z m91 -14 c-3 -28 -32 -54 -44 -41 -4 4 0 15 9 25 10 10
17 24 17 30 0 7 5 12 11 12 6 0 9 -12 7 -26z"/>
<path d="M3192 4396 c-76 -10 -85 -14 -128 -53 -46 -41 -46 -42 -39 -90 4 -26
9 -68 11 -92 2 -24 8 -60 14 -80 5 -20 10 -54 10 -75 0 -28 10 -55 36 -95 31
-48 45 -59 93 -78 47 -18 64 -21 92 -13 18 6 67 10 107 10 87 0 162 28 162 60
0 19 -11 24 -64 32 -11 2 -21 8 -23 14 -6 17 49 22 83 7 40 -17 75 -16 102 2
22 16 23 15 -9 76 -10 20 -9 21 14 15 30 -7 37 7 25 49 -14 51 -9 94 13 116
25 25 18 52 -25 97 -52 56 -121 88 -216 101 -94 13 -136 12 -258 -3z m311
-310 c57 -21 101 -66 63 -66 -25 0 -159 67 -145 73 22 9 41 7 82 -7z"/>
<path d="M2140 3271 c0 -6 5 -13 10 -16 6 -3 10 1 10 9 0 9 -4 16 -10 16 -5 0
-10 -4 -10 -9z"/>
<path d="M1910 3330 c0 -18 27 -64 48 -84 26 -23 44 -13 36 22 -9 42 -84 96
-84 62z"/>
<path d="M3504 2030 c4 -36 16 -53 16 -22 0 11 3 27 6 36 4 11 1 16 -10 16
-12 0 -15 -8 -12 -30z"/>
<path d="M620 4857 c-22 -30 -40 -57 -40 -62 0 -11 71 4 97 20 31 21 38 52 17
76 -9 10 -21 19 -25 19 -5 0 -26 -24 -49 -53z"/>
<path d="M1248 4751 c-104 -27 -108 -33 -102 -155 2 -55 6 -144 8 -197 5 -128
18 -152 104 -190 60 -28 65 -32 49 -44 -10 -7 -26 -11 -35 -8 -10 2 -33 -6
-52 -19 -28 -19 -36 -31 -38 -60 -4 -50 21 -88 60 -88 16 0 47 -9 69 -20 l40
-21 29 21 c16 11 32 29 35 40 4 11 10 20 14 20 5 0 11 14 15 31 6 30 -20 82
-52 102 -11 7 -9 14 9 33 l22 24 -7 267 c-4 147 -9 269 -11 271 -12 13 -99 9
-157 -7z"/>
<path d="M570 4581 c-19 -4 -50 -15 -69 -25 -26 -14 -39 -16 -57 -7 -20 9 -25
6 -42 -22 -94 -160 -145 -276 -130 -295 9 -10 5 -18 -15 -35 -41 -34 -55 -78
-46 -145 4 -31 10 -169 14 -305 3 -136 10 -259 15 -273 6 -14 10 -39 10 -55 0
-25 -6 -33 -36 -45 -19 -8 -70 -17 -114 -21 -95 -7 -87 12 -96 -243 -8 -206
-3 -260 24 -260 10 0 28 -7 41 -16 19 -14 22 -22 16 -48 -41 -196 -45 -269
-22 -361 l12 -50 80 -12 c44 -6 106 -14 137 -18 36 -4 71 -16 94 -31 52 -35
262 -74 402 -74 34 0 57 -6 73 -19 l24 -19 -26 -7 c-15 -4 -97 5 -182 19 -207
35 -297 34 -357 0 -41 -24 -52 -26 -121 -21 l-76 5 8 -39 c5 -21 16 -57 25
-80 l17 -41 106 6 c58 4 275 15 481 26 838 45 927 53 1002 91 21 11 55 19 77
19 81 0 126 46 80 81 -13 10 -28 19 -34 19 -5 0 -21 9 -35 20 -14 11 -32 20
-40 20 -8 0 -26 9 -40 20 -14 11 -36 20 -50 20 -14 0 -33 6 -42 13 -15 12 -15
14 3 25 10 7 31 12 46 12 46 0 91 22 102 49 14 38 25 152 26 258 0 82 -2 95
-22 114 -20 20 -27 22 -70 13 -33 -6 -73 -5 -128 4 -44 7 -103 10 -132 7 -35
-4 -60 -2 -80 8 -27 14 -168 29 -267 29 -77 -1 -79 -6 -68 -165 8 -119 13
-141 36 -181 14 -24 26 -59 26 -76 0 -76 54 -137 112 -125 30 7 30 6 24 -21
-5 -21 -4 -25 4 -14 8 13 10 13 10 -2 0 -10 5 -18 10 -18 6 0 10 -7 10 -15 0
-17 -15 -18 -78 -6 -23 5 -45 5 -48 0 -7 -12 -309 -11 -364 2 -25 6 -57 21
-71 35 -25 23 -26 29 -17 67 6 23 11 146 12 274 l1 232 -27 28 c-23 23 -38 28
-93 31 -86 6 -115 -12 -115 -67 0 -73 41 -286 65 -336 15 -33 24 -74 26 -120
4 -66 3 -70 -18 -73 -20 -3 -25 6 -48 83 -15 48 -31 128 -36 178 -10 111 -28
194 -62 304 -15 46 -31 124 -37 175 -6 51 -18 125 -26 165 -18 92 -18 103 4
103 50 -1 92 -55 92 -119 0 -20 9 -51 20 -68 16 -27 26 -33 52 -33 18 0 44 6
58 13 14 7 44 19 68 26 62 21 67 31 48 99 -19 68 -21 291 -6 641 6 143 5 219
-2 230 -5 9 -28 27 -49 41 -33 20 -37 26 -22 31 10 4 32 19 48 32 l30 25 5
144 c7 171 4 179 -74 177 -28 -1 -67 -4 -86 -8z m-23 -356 l21 -18 -35 -18
c-37 -19 -57 -15 -82 15 -11 13 -8 20 14 42 23 23 28 24 43 11 9 -8 27 -22 39
-32z m927 -1830 c11 -8 30 -15 43 -15 25 0 29 -11 13 -41 -8 -15 -21 -19 -60
-19 -45 0 -50 2 -56 26 -5 17 -1 31 12 44 23 23 24 23 48 5z"/>
<path d="M5640 4538 c0 -9 5 -20 10 -23 13 -8 13 5 0 25 -8 13 -10 13 -10 -2z"/>
<path d="M5522 4439 c-9 -12 -42 -48 -73 -81 -63 -66 -71 -68 -159 -22 -50 27
-80 30 -98 12 -17 -17 -15 -53 3 -68 24 -20 18 -38 -20 -56 -19 -9 -50 -34
-70 -55 -19 -21 -39 -39 -45 -39 -5 0 -10 -7 -10 -15 0 -16 49 -45 66 -38 6 2
24 -2 40 -8 16 -7 69 -20 118 -28 76 -14 90 -19 91 -36 6 -79 78 -113 326
-152 34 -5 36 -4 52 39 24 63 22 103 -8 126 -13 11 -21 22 -18 26 3 3 -3 6
-15 6 -11 0 -23 4 -27 9 -3 6 -18 6 -36 1 -20 -6 -37 -5 -49 3 -16 9 -27 7
-60 -12 -23 -13 -44 -21 -46 -18 -3 3 -18 2 -33 -3 -16 -4 -32 -5 -37 -1 -15
10 -45 82 -39 92 4 5 0 9 -7 9 -7 0 -21 11 -30 24 -16 22 -16 25 1 40 16 15
24 15 77 2 32 -7 72 -19 88 -25 40 -16 93 17 100 62 11 70 17 187 11 207 -9
28 -69 28 -93 -1z"/>
<path d="M1563 4278 c-27 -13 -28 -21 -8 -38 8 -7 15 -19 15 -26 0 -9 12 -14
35 -14 19 0 35 5 35 10 0 6 7 10 16 10 11 0 14 5 10 16 -3 9 -6 17 -6 20 0 3
-70 35 -74 33 0 0 -11 -5 -23 -11z"/>
<path d="M1688 4223 c7 -3 16 -2 19 1 4 3 -2 6 -13 5 -11 0 -14 -3 -6 -6z"/>
<path d="M1543 4138 c-13 -6 -23 -15 -23 -20 0 -4 -7 -8 -15 -8 -26 0 -18 -46
12 -66 24 -15 35 -16 91 -6 112 19 145 82 50 95 -24 4 -54 9 -68 11 -14 3 -35
0 -47 -6z"/>
<path d="M5037 4035 c-3 -7 2 -23 11 -34 23 -27 62 -12 62 24 0 22 -4 25 -34
25 -20 0 -36 -6 -39 -15z"/>
<path d="M4637 3942 c-16 -17 -16 -20 -2 -32 13 -11 19 -11 33 3 15 15 15 19
1 32 -14 14 -17 14 -32 -3z"/>
<path d="M5857 3903 c-13 -3 -16 -10 -11 -26 4 -11 6 -43 5 -71 0 -29 5 -59
14 -73 14 -21 112 -79 121 -71 8 9 -54 231 -67 239 -15 9 -32 10 -62 2z"/>
<path d="M4627 3883 c-13 -12 -7 -33 8 -33 8 0 15 9 15 20 0 20 -11 26 -23 13z"/>
<path d="M5885 3613 c-11 -3 -33 -15 -50 -28 -16 -12 -48 -28 -70 -35 -36 -12
-125 -91 -125 -111 0 -12 -60 -38 -74 -33 -8 3 -30 -2 -50 -10 -43 -18 -60
-54 -52 -113 6 -47 59 -149 85 -162 20 -11 156 -16 191 -8 14 4 80 8 146 9
l121 4 10 -26 c5 -15 6 -35 2 -46 -15 -39 -84 -107 -128 -126 -25 -11 -59 -30
-76 -42 -16 -13 -52 -35 -80 -49 -97 -50 -175 -142 -200 -237 -12 -45 -12 -58
0 -86 7 -18 22 -37 32 -42 32 -17 128 -23 146 -9 9 6 34 47 57 90 33 61 46 77
64 77 43 0 62 -82 26 -113 -11 -9 -20 -24 -20 -33 0 -17 39 -64 53 -64 5 0 15
-6 23 -14 16 -16 20 -136 5 -136 -23 0 -41 -70 -40 -157 0 -103 3 -99 55 82
23 79 33 131 29 151 -4 21 -1 35 9 43 31 26 70 289 81 546 7 158 -1 211 -28
209 -23 -2 -21 18 3 59 19 31 19 41 10 133 -21 206 -33 239 -92 270 -28 15
-30 15 -63 7z m-214 -283 c16 0 27 -43 16 -61 -8 -13 -17 -15 -40 -8 -17 5
-35 13 -40 18 -15 15 20 64 40 57 8 -3 19 -6 24 -6z"/>
<path d="M4620 3524 c0 -24 5 -44 10 -44 6 0 10 -18 10 -40 0 -22 -4 -40 -9
-40 -6 0 -13 -21 -17 -47 -3 -27 -12 -63 -20 -81 -15 -37 -6 -75 22 -86 16 -6
28 0 71 38 l23 19 -25 25 c-32 32 -39 74 -31 192 6 93 6 98 -14 103 -18 5 -20
0 -20 -39z"/>
<path d="M4603 3129 c-27 -10 -44 -64 -30 -97 12 -26 45 -37 79 -27 39 12 45
23 39 62 -7 45 -52 76 -88 62z"/>
<path d="M106 2254 c4 -16 8 -31 10 -33 2 -2 29 4 61 14 63 20 58 27 -31 40
l-47 7 7 -28z"/>
<path d="M1623 1907 c-47 -18 -51 -27 -5 -14 23 7 44 16 48 20 10 10 -5 8 -43
-6z"/>
<path d="M4970 1650 c0 -5 7 -10 15 -10 8 0 15 5 15 10 0 6 -7 10 -15 10 -8 0
-15 -4 -15 -10z"/>
<path d="M5470 1486 c0 -9 5 -16 10 -16 6 0 10 4 10 9 0 6 -4 13 -10 16 -5 3
-10 -1 -10 -9z"/>
</g>
</svg>
